<svg id="图层_1" data-name="图层 1" xmlns="http://www.w3.org/2000/svg" viewBox="0 0 62.36 85.04">
<defs>
<style>.cls-1{fill:#4b4b4d;}.cls-2{fill:#007dc2;}.cls-2,.cls-3{fill-rule:evenodd;}.cls-3{fill:#008ed2;}.cls-4{fill:#008cc2;}.cls-5{fill:#ebebec;}.cls-6{fill:#fff;}</style>
</defs>
<title>css-logo</title>
<polyline class="cls-1" points="3.82 18.75 60.41 18.75 55.35 76.59 32.27 83.23 8.56 76.59"/>
<polyline class="cls-1" points="32.29 24.34 32.29 77.63 51.35 72.15 55.53 24.34"/>
<polyline class="cls-1" points="40.81 51.94 32.29 51.94 32.29 62.84 39.86 61.42"/>
<polyline class="cls-1" points="13.94 31.07 14.89 38.04 31.96 38.03 15.2 45.3 16.15 51.94 32.29 51.94 32.29 31.07"/>
<polyline class="cls-1" points="24.05 61.11 23.42 55.73 16.47 55.73 17.42 66.8 32.27 70.91 32.29 70.9 32.29 62.84"/>
<polyline class="cls-1" points="48.4 44.71 33.17 44.71 49.7 37.95 49.7 31.07 32.29 31.07 32.29 51.94 40.81 51.94 39.86 61.42 32.29 62.84 32.29 70.9 46.5 66.48"/>
<polyline class="cls-2" points="3.82 18.75 60.41 18.75 55.35 76.59 32.27 83.23 8.56 76.59"/>
<polyline class="cls-3" points="32.29 24.34 32.29 77.63 51.35 72.15 55.53 24.34"/>
<polyline class="cls-4" points="40.81 51.94 32.29 51.94 32.29 62.84 39.86 61.42"/>
<polyline class="cls-5" points="13.94 31.07 14.89 38.04 31.96 38.03 15.2 45.3 16.15 51.94 32.29 51.94 32.29 31.07"/>
<polyline class="cls-5" points="24.05 61.11 23.42 55.73 16.47 55.73 17.42 66.8 32.27 70.91 32.29 70.9 32.29 62.84"/>
<polyline class="cls-6" points="48.4 44.71 33.17 44.71 49.7 37.95 49.7 31.07 32.29 31.07 32.29 51.94 40.81 51.94 39.86 61.42 32.29 62.84 32.29 70.9 46.5 66.48"/>
</svg>