<svg id="图层_1" data-name="图层 1" xmlns="http://www.w3.org/2000/svg" viewBox="0 0 651.97 612.28"><defs><style>.cls-1{fill:#2d3d44;}.cls-2{fill:#fff;}</style></defs><title>mplab-logo</title><rect class="cls-1" x="260.51" y="306.57" width="33.77" height="116.07"/><path class="cls-1" d="M426.43,422.64H327.89V306.57h98.54q32,0,44.78,28.87,5.35,11.91,6.37,28.74-1,17.11-6.37,29.16-12.76,29.31-44.78,29.3m23.62-58.18a53.57,53.57,0,0,0-3.76-17q-7.55-17-26.38-17H356.58v68.4h63.19q18.83,0,26.52-17.13a55.54,55.54,0,0,0,3.76-17.29"/><polygon class="cls-1" points="503.81 422.64 503.81 306.71 626.99 306.71 626.99 330.48 533.81 330.48 533.81 351.2 588.44 351.2 588.44 376.42 533.96 376.42 533.96 397.14 626.7 397.14 626.7 422.64 503.81 422.64"/><polygon class="cls-1" points="186.9 306.57 138.93 306.72 104.88 340.63 70.82 306.72 42.69 306.63 157.6 422.64 186.9 422.64 128.79 364.61 186.9 306.57"/><polygon class="cls-1" points="34.42 306.61 22.86 306.57 80.96 364.61 22.86 422.64 70.68 422.64 104.88 388.59 138.93 422.64 149.36 422.64 34.42 306.61"/><polygon class="cls-1" points="578.05 453.41 74.29 453.41 74.3 453.43 36.96 453.43 76.46 472.42 80.26 505.74 326.17 599.18 572.09 505.74 575.88 472.47 615.48 453.43 578.05 453.43 578.05 453.41"/><polygon class="cls-1" points="54.26 277.66 598.09 277.66 638.49 277.66 600.19 259.25 617.16 110.36 326.17 13.93 35.19 110.36 52.21 259.71 14.87 277.66 54.26 277.66"/><polygon class="cls-2" points="69.76 129.57 326.17 47.28 582.59 129.57 565.96 277.68 575.79 277.68 592.74 126.68 593.18 122.71 326.17 37.02 59.16 122.71 76.57 277.68 86.39 277.68 69.76 129.57"/><polygon class="cls-2" points="542.76 484.22 326.17 565.75 109.59 484.22 106.12 453.41 96.3 453.41 100.56 491.25 326.17 576.18 551.8 491.25 556.04 453.41 546.22 453.41 542.76 484.22"/><polygon class="cls-2" points="213.25 146.81 213.25 252.68 190.22 252.68 190.22 182.91 174.19 252.68 146.22 252.68 130.05 182.91 130.05 252.68 107.02 252.68 107.02 146.81 138.96 146.81 160.21 232.84 181.31 146.81 213.25 146.81"/><path class="cls-2" d="M228.81,146.8h50.85a18,18,0,0,1,11.93,4.2,13,13,0,0,1,5.07,10.26v27.28q0,12.09-10.15,19.47Q277,215,262.73,215h-10.9v37.74h-23Zm23,19.59v29h10.9q10.89,0,10.9-6.82V166.39Z"/><polygon class="cls-2" points="309.33 252.69 309.33 146.81 332.36 146.81 332.36 233.09 364.3 233.09 364.3 252.69 309.33 252.69"/><path class="cls-2" d="M403.63,231.22,399,252.69h-23.3L398.14,146.8h30.64l22.41,105.89H427.82l-4.52-21.47Zm4.18-19.59H419l-5.61-45.11Z"/><path class="cls-2" d="M460.72,146.8h47.9a18.3,18.3,0,0,1,12.06,4.2,12.94,12.94,0,0,1,5.08,10.26V183.1a19.18,19.18,0,0,1-7.55,15.64q10.35,6.27,10.36,17.65v9.82q0,12.15-10.15,19.52-9.52,7-23.78,7H460.72Zm23,19.59v23.53h10.63a9.16,9.16,0,0,0,5.82-1.94,6.13,6.13,0,0,0,2.54-4.88V166.39Zm0,66.71h10.9q10.91,0,10.9-6.89v-9.82a6.08,6.08,0,0,0-2.47-4.88,9.09,9.09,0,0,0-5.76-1.94H483.74Z"/><path class="cls-2" d="M531.29,151.7a9.55,9.55,0,0,1,2.17-3,9.84,9.84,0,0,1,3.14-1.91,10.54,10.54,0,0,1,7.45,0,9.73,9.73,0,0,1,3.14,1.91,9.6,9.6,0,0,1,0,14,9.58,9.58,0,0,1-3.14,1.92,10.84,10.84,0,0,1-7.45,0,9.69,9.69,0,0,1-3.14-1.92,9.87,9.87,0,0,1-2.17-11m2.38,7a7.44,7.44,0,0,0,1.54,2.39,6.86,6.86,0,0,0,2.28,1.58,7.3,7.3,0,0,0,2.84.56,7.23,7.23,0,0,0,2.81-.56,6.9,6.9,0,0,0,2.29-1.58,7.78,7.78,0,0,0,2.12-5.42,7.58,7.58,0,0,0-.58-3,7.7,7.7,0,0,0-1.54-2.37,7.13,7.13,0,0,0-5.1-2.13,7.13,7.13,0,0,0-2.84.57,7,7,0,0,0-2.28,1.56,7.35,7.35,0,0,0-1.54,2.37,7.76,7.76,0,0,0-.56,3,7.89,7.89,0,0,0,.56,3m6.89-8.41a5.61,5.61,0,0,1,3.11.72,2.72,2.72,0,0,1,1.09,2.46,3.4,3.4,0,0,1-.22,1.27,2.12,2.12,0,0,1-.6.85,2.59,2.59,0,0,1-.9.52,4.3,4.3,0,0,1-1.09.22l2.86,4.7h-2.23L540,156.42h-1.34V161h-2.12V150.27Zm0,4.49a3.83,3.83,0,0,0,1.51-.26q.6-.25.6-1.23a1.16,1.16,0,0,0-.21-.7,1.55,1.55,0,0,0-.52-.39,2.7,2.7,0,0,0-.73-.2c-.26,0-.51,0-.75,0h-1.8v2.82Z"/><polygon class="cls-1" points="633.58 289.07 20.29 289.07 15.4 284.19 638.46 284.19 633.58 289.07"/><polygon class="cls-1" points="616.5 445.29 36.76 445.29 41.65 440.41 611.6 440.41 616.5 445.29"/><path class="cls-2" d="M335.41,71.44a8.95,8.95,0,1,1-9-9,9,9,0,0,1,9,9"/><path class="cls-2" d="M335.41,541.72a8.95,8.95,0,1,1-9-9,8.95,8.95,0,0,1,9,9"/><path class="cls-2" d="M533.53,473.36a9,9,0,1,1-8.95-8.94,9,9,0,0,1,8.95,8.94"/><path class="cls-2" d="M135.87,473.36a9,9,0,1,1-9-8.94,8.95,8.95,0,0,1,9,8.94"/></svg>